<?xml version="1.0" encoding="iso-8859-1"?>
<!-- Uploaded to: SVG Repo, www.svgrepo.com, Generator: SVG Repo Mixer Tools -->
<svg height="800px" width="800px" version="1.1" id="Layer_1" xmlns="http://www.w3.org/2000/svg" xmlns:xlink="http://www.w3.org/1999/xlink" 
	 viewBox="0 0 512 512" xml:space="preserve">
<polygon style="fill:#A2B1B7;" points="278.141,437.276 278.141,492.627 233.859,492.627 233.859,437.276 256,415.135 "/>
<path style="fill:#C4D3D9;" d="M278.141,22.141v415.135h-44.281V22.141C233.859,9.908,243.767,0,256,0
	C268.233,0,278.141,9.908,278.141,22.141z"/>
<path style="fill:#A2B1B7;" d="M344.562,470.487h-33.211l33.211,33.211h33.211C377.773,485.431,362.828,470.487,344.562,470.487z"/>
<path style="fill:#C4D3D9;" d="M344.562,503.697H134.227c0-18.266,14.945-33.211,33.211-33.211h143.914
	C329.617,470.487,344.562,485.431,344.562,503.697z"/>
<path style="fill:#748993;" d="M388.843,512H123.157c-4.586,0-8.303-3.717-8.303-8.303c0-4.585,3.716-8.303,8.303-8.303h265.686
	c4.586,0,8.303,3.717,8.303,8.303C397.146,508.283,393.43,512,388.843,512z"/>
<g>
	<path style="fill:#A2B1B7;" d="M366.632,208.512l-44.142-22.071c-10.902-5.451-19.442-19.269-19.442-31.457V66.422
		c0-12.188,8.54-26.006,19.442-31.457l44.145-22.072l7.426,14.853l-44.144,22.071c-5.372,2.686-10.263,10.601-10.263,16.605v88.562
		c0,6.005,4.891,13.92,10.263,16.605l44.14,22.071L366.632,208.512z"/>
	<path style="fill:#A2B1B7;" d="M145.368,208.512l-7.426-14.853l44.142-22.07c5.372-2.686,10.263-10.601,10.263-16.605V66.422
		c0-6.005-4.891-13.92-10.263-16.605L137.94,27.744l7.426-14.853l44.145,22.072c10.901,5.452,19.441,19.27,19.441,31.458v88.562
		c0,12.188-8.54,26.006-19.442,31.457L145.368,208.512z"/>
</g>
<g>
	<path style="fill:#748993;" d="M322.422,85.795H189.578c-4.586,0-8.303-3.717-8.303-8.303c0-4.585,3.716-8.303,8.303-8.303h132.843
		c4.586,0,8.303,3.717,8.303,8.303C330.724,82.077,327.008,85.795,322.422,85.795z"/>
	<path style="fill:#748993;" d="M322.422,152.216H189.578c-4.586,0-8.303-3.717-8.303-8.303c0-4.585,3.716-8.303,8.303-8.303
		h132.843c4.586,0,8.303,3.717,8.303,8.303C330.724,148.499,327.008,152.216,322.422,152.216z"/>
</g>
<circle style="fill:#FEEB5C;" cx="377.773" cy="16.605" r="16.605"/>
<circle style="fill:#EA5A7D;" cx="377.773" cy="204.8" r="16.605"/>
<circle style="fill:#F7A676;" cx="134.227" cy="16.605" r="16.605"/>
<circle style="fill:#3AAADC;" cx="134.227" cy="204.8" r="16.605"/>
</svg>